<svg version="1.1" id="Layer_1" xmlns="http://www.w3.org/2000/svg" xmlns:xlink="http://www.w3.org/1999/xlink" x="0px" y="0px"
	 width="100%" viewBox="0 0 1024 1024" enable-background="new 0 0 1024 1024" xml:space="preserve">
<path fill="#FEFEFE" opacity="1.000000" stroke="none" 
	d="
M469.000000,1025.000000 
	C312.666656,1025.000000 156.833328,1025.000000 1.000000,1025.000000 
	C1.000000,683.666687 1.000000,342.333344 1.000000,1.000000 
	C342.333344,1.000000 683.666687,1.000000 1025.000000,1.000000 
	C1025.000000,342.333344 1025.000000,683.666687 1025.000000,1025.000000 
	C839.833313,1025.000000 654.666687,1025.000000 469.000000,1025.000000 
M783.651306,622.967163 
	C783.772461,622.649170 783.893616,622.331116 784.256653,621.842957 
	C784.256653,621.842957 784.301331,621.550720 784.857117,621.149292 
	C785.255981,620.101685 785.654846,619.054138 786.256287,617.785950 
	C786.256287,617.785950 786.237000,617.487122 786.821228,616.927002 
	C787.155151,613.965027 787.778015,611.003296 787.780579,608.041016 
	C787.839539,539.486267 787.839905,470.931458 787.799561,402.376678 
	C787.798096,399.919861 787.271362,397.463379 787.031372,394.328613 
	C786.902832,393.899719 786.774231,393.470825 786.596924,392.413666 
	C786.110718,391.516479 785.624512,390.619263 785.077332,389.186707 
	C784.762695,388.770538 784.448059,388.354401 784.079529,387.399353 
	C783.822998,387.170990 783.566528,386.942627 783.002441,387.000000 
	C783.002441,387.000000 783.311401,386.714600 783.184570,386.159454 
	C782.790955,385.775177 782.397278,385.390869 781.741455,384.380493 
	C777.602417,380.368256 773.005798,377.288910 766.058289,376.933563 
	C740.369385,376.948456 714.680481,376.963348 688.527222,376.500183 
	C687.291321,374.947998 686.052551,373.398102 684.820007,371.843262 
	C668.559814,351.330933 649.532288,333.917328 626.664795,319.865692 
	C625.394592,319.082367 624.143738,318.265656 622.851440,317.520630 
	C577.053284,291.116638 527.969360,281.653625 475.607544,288.814117 
	C432.893616,294.655243 394.949188,311.215912 362.161499,339.249298 
	C354.486847,345.811096 347.413483,353.076111 339.737793,359.426971 
	C333.601929,353.686707 327.466064,347.946442 322.318604,343.130859 
	C316.711487,348.419037 310.946228,353.856415 305.028656,359.437439 
	C311.635345,366.086975 318.288818,372.783630 324.802521,380.108459 
	C323.462280,382.176270 321.975342,384.164703 320.806641,386.325287 
	C315.115631,396.846283 309.509735,407.413330 303.942505,418.002411 
	C303.942505,418.002411 303.960785,417.925873 303.388550,418.183777 
	C303.189331,418.774414 302.990112,419.365051 302.252136,420.407135 
	C301.036530,423.680237 299.789093,426.941895 298.610352,430.228210 
	C289.953217,454.364227 284.432251,479.071503 284.978241,505.840515 
	C286.531464,520.869019 286.860199,536.148132 289.875397,550.877319 
	C297.821472,589.693542 316.887512,622.954285 343.789886,651.801758 
	C357.817413,666.843445 373.276581,680.201965 391.838348,690.978271 
	C394.078186,692.400818 396.228668,693.993896 398.570831,695.221130 
	C468.366547,731.796387 538.771606,733.034607 609.583496,698.398743 
	C627.109619,689.826172 643.236267,678.983643 657.839783,664.939209 
	C659.233643,663.779785 660.798157,662.773010 661.993958,661.436462 
	C670.484863,651.945801 678.900330,642.387634 688.157959,632.880066 
	C689.785706,632.768311 691.413391,632.656555 693.749023,632.708252 
	C716.184509,632.692139 738.620056,632.705994 761.055298,632.623718 
	C764.022461,632.612854 766.987732,632.111877 770.678406,631.932800 
	C773.157043,630.693665 775.635620,629.454529 778.746155,628.040833 
	C779.920898,626.787903 781.095642,625.534973 782.038879,624.036743 
	C782.038879,624.036743 782.289856,624.262146 782.783508,624.084412 
	C782.915466,623.770081 783.047424,623.455750 783.012573,623.036743 
	C783.012573,623.036743 783.158691,623.168884 783.651306,622.967163 
M223.037369,319.272949 
	C231.174225,345.540405 256.490692,360.131348 282.314697,353.437012 
	C308.289795,346.703461 323.500580,320.311890 316.557404,294.023804 
	C309.703644,268.074066 283.390869,252.540405 257.743958,259.303467 
	C231.640915,266.186798 216.159882,292.472198 223.037369,319.272949 
M682.084656,735.256348 
	C683.069519,736.596985 683.972290,738.008118 685.052429,739.267029 
	C692.792603,748.288574 706.013550,750.701599 716.897461,745.121765 
	C727.683594,739.592041 733.480042,727.160095 730.452820,715.741699 
	C727.700012,705.358521 721.122070,698.443848 710.623962,696.135376 
	C699.762695,693.747009 690.487915,697.115906 683.685608,706.054871 
	C676.841187,715.049011 676.465576,724.678650 682.084656,735.256348 
z"/>
<path fill="#02A0D2" opacity="1.000000" stroke="none" 
	d="
M657.226196,665.205872 
	C643.236267,678.983643 627.109619,689.826172 609.583496,698.398743 
	C538.771606,733.034607 468.366547,731.796387 398.570831,695.221130 
	C396.228668,693.993896 394.078186,692.400818 391.787598,690.520081 
	C396.161957,685.389893 400.477661,680.607117 405.054413,676.088745 
	C407.678680,673.497864 407.431702,671.730957 404.472229,669.769348 
	C400.604950,667.205933 395.777374,665.187744 393.344269,661.593750 
	C390.325439,657.134460 386.704865,655.587769 381.730133,654.703430 
	C378.619080,653.778198 375.770874,653.135010 371.710785,652.218140 
	C373.829773,650.502136 374.657593,649.831787 375.571014,649.092041 
	C374.743805,647.709717 373.926941,646.344604 372.875854,644.777954 
	C371.755341,644.053467 370.868988,643.530640 369.891846,642.725464 
	C369.753326,642.285889 369.675598,642.130371 369.666382,641.970947 
	C369.657471,641.816162 369.724487,641.518921 369.748596,641.519897 
	C371.670868,641.597900 373.592194,641.699097 375.513580,641.798523 
	C375.872864,641.364319 376.232117,640.930054 376.591370,640.495789 
	C374.914764,637.605896 373.077423,634.794006 371.622528,631.796509 
	C370.766785,630.033386 370.518433,627.975403 370.269287,625.839966 
	C372.120850,623.380127 373.479248,620.924866 375.334900,618.932678 
	C377.677734,616.417419 380.425964,614.279724 383.213257,611.938049 
	C383.710358,611.776855 383.908417,611.573730 384.106720,611.011169 
	C384.476044,610.484009 384.760040,610.233337 385.254669,609.929321 
	C385.734802,609.725037 385.907166,609.499878 386.253906,609.123657 
	C386.711304,609.075745 386.897156,609.104553 387.291748,609.396118 
	C393.161407,612.898132 395.632690,607.560913 399.227081,605.277039 
	C400.926971,604.196960 402.559052,603.010132 404.602356,601.880859 
	C410.060059,601.983398 409.529877,599.223633 407.978027,595.613037 
	C406.362122,589.965820 411.811005,590.654663 414.058167,588.592285 
	C423.744537,596.004944 432.577209,604.256470 442.770599,610.157349 
	C453.121796,616.149658 464.815460,619.822998 475.925232,624.864624 
	C477.601532,632.096313 480.774567,638.152344 487.125092,641.619812 
	C491.892731,644.222961 494.058716,648.229980 495.051758,653.064087 
	C496.019592,657.775635 496.345001,662.615540 497.190796,667.356567 
	C498.444275,674.382751 499.508118,681.481384 501.394897,688.345154 
	C503.280853,695.206055 506.992767,696.997559 513.921936,695.494446 
	C514.263794,693.104736 514.352783,690.572693 515.056763,688.225037 
	C515.534546,686.631531 516.560730,684.847900 517.882690,683.921448 
	C524.864136,679.029480 531.570251,673.999207 534.373352,665.398621 
	C535.534668,661.835327 537.926514,659.910034 541.678772,658.761658 
	C543.991211,658.053955 546.492065,655.721924 547.511475,653.483154 
	C549.825500,648.401367 550.591614,642.553528 553.236389,637.697693 
	C557.333191,630.176208 557.067566,627.987915 549.185486,624.365417 
	C547.977173,623.810059 546.723999,623.352539 545.751343,622.570007 
	C562.640930,617.292236 577.314575,608.693726 591.075745,597.862976 
	C591.545715,597.503540 591.760498,597.226990 591.987122,596.975525 
	C591.998901,597.000549 591.950745,596.973083 592.178711,596.883118 
	C592.694885,596.610779 592.893127,596.357849 592.999756,596.012695 
	C592.998291,595.991150 593.040222,596.002014 593.256714,595.886353 
	C593.739868,595.557007 593.910583,595.283447 594.022095,594.706665 
	C594.234741,594.149719 594.502014,593.979126 595.204590,593.925781 
	C596.016724,593.223877 596.484802,592.547546 597.048035,591.606689 
	C597.715942,590.879395 598.288757,590.416565 599.107300,589.868774 
	C599.563965,589.516724 599.774780,589.249634 599.992798,588.991272 
	C600.000000,589.000000 599.984741,588.982361 600.374390,588.989807 
	C606.577576,589.035461 608.964600,584.545837 611.618530,580.583130 
	C613.747864,577.403748 615.918030,575.470825 620.232361,576.685791 
	C621.794434,577.125732 623.940552,575.289307 625.877197,574.669617 
	C627.266052,574.225342 629.779663,573.497009 630.007080,573.900635 
	C630.847656,575.392700 631.653503,577.543396 631.157349,578.997925 
	C630.432739,581.122559 628.573181,582.859985 627.118103,584.872009 
	C628.143250,585.679199 629.138916,586.463196 630.076721,587.581421 
	C624.128906,591.461731 619.622253,595.721375 621.680359,603.544983 
	C621.872681,604.276245 621.623779,605.253174 621.280823,605.973816 
	C619.529358,609.654175 620.606689,613.131592 623.009766,615.693542 
	C627.511780,620.493286 630.545593,628.134094 639.553040,625.626892 
	C642.271545,624.870361 645.028198,624.110291 647.818054,623.780151 
	C653.260986,623.136169 655.840088,626.030701 655.424561,631.255005 
	C655.286072,632.996033 656.334595,634.958435 657.206238,636.628662 
	C659.684509,641.377441 661.742737,646.423645 658.268860,651.177917 
	C654.803711,655.920410 655.131042,660.352051 657.226196,665.205872 
M618.996460,600.909424 
	C618.921814,600.283020 618.847107,599.656677 618.772461,599.030273 
	C618.607727,599.038208 618.442932,599.046082 618.278198,599.053955 
	C618.278198,601.025269 618.278198,602.996521 618.278198,604.967834 
	C618.465332,604.978821 618.652405,604.989807 618.839539,605.000732 
	C618.892212,603.880188 618.944885,602.759583 618.996460,600.909424 
z"/>
<path fill="#17203E" opacity="1.000000" stroke="none" 
	d="
M778.114258,628.215393 
	C775.635620,629.454529 773.157043,630.693665 769.999390,631.624573 
	C744.807007,631.216980 720.293640,631.101013 695.780212,631.083008 
	C694.867493,631.082336 693.954163,632.035889 693.041138,632.544800 
	C691.413391,632.656555 689.785706,632.768311 687.848511,632.562500 
	C693.371338,622.290833 699.203491,612.336731 705.114990,602.165344 
	C705.858521,600.992920 706.522705,600.037781 707.482910,598.759521 
	C722.830688,567.728882 730.314514,535.388306 728.924988,500.645813 
	C729.369873,480.549500 725.456970,461.591888 719.416565,443.049774 
	C717.218445,436.302338 715.697571,428.356659 711.135803,423.550629 
	C700.006531,411.825226 687.280762,401.615143 675.127808,390.797089 
	C675.057922,390.799225 675.192383,390.837799 675.100220,390.588135 
	C674.694519,390.192047 674.380981,390.045593 674.040161,389.943970 
	C674.012939,389.988739 674.097595,389.926819 674.005737,389.684509 
	C673.614441,389.290436 673.315063,389.138641 672.828918,388.709961 
	C664.982056,383.555817 657.427673,378.501526 649.633362,373.848999 
	C641.183777,368.805298 632.510803,364.135925 623.672241,359.113037 
	C622.611572,358.642548 621.813843,358.362305 620.798157,357.894043 
	C620.048584,357.524689 619.517029,357.343292 618.701660,356.940613 
	C609.277954,353.050232 600.137878,349.381104 591.256775,345.502716 
	C591.990112,345.151337 592.525635,345.106567 592.930115,344.852997 
	C603.412231,338.282257 613.933105,331.770111 624.288635,325.004913 
	C625.665833,324.105164 626.191589,321.902130 627.111694,320.302673 
	C649.532288,333.917328 668.559814,351.330933 684.820007,371.843262 
	C686.052551,373.398102 687.291321,374.947998 689.051331,377.039520 
	C690.383179,377.714935 691.190857,377.969147 691.998718,377.969910 
	C715.742004,377.992340 739.485352,378.002472 763.228577,377.954346 
	C764.477417,377.951813 765.725281,377.420837 766.973572,377.135864 
	C773.005798,377.288910 777.602417,380.368256 781.894226,384.997681 
	C782.468445,385.981445 782.889954,386.348022 783.311401,386.714600 
	C783.311401,386.714600 783.002441,387.000000 783.180542,387.122345 
	C783.616943,387.475861 783.875183,387.707031 784.133423,387.938232 
	C784.448059,388.354401 784.762695,388.770538 785.068237,389.800659 
	C785.587952,391.290405 786.116821,392.166168 786.645630,393.041931 
	C786.774231,393.470825 786.902832,393.899719 786.742310,394.981873 
	C786.327026,397.448181 786.091003,399.261200 786.090454,401.074280 
	C786.072083,460.885284 786.067505,520.696289 786.084290,580.507324 
	C786.087769,592.833923 786.183655,605.160522 786.236938,617.487122 
	C786.237000,617.487122 786.256287,617.785950 785.848816,618.085815 
	C785.061340,619.440674 784.681335,620.495728 784.301331,621.550720 
	C784.301331,621.550720 784.256653,621.842957 783.913452,622.054993 
	C783.433105,622.567627 783.295898,622.868225 783.158691,623.168884 
	C783.158691,623.168884 783.012573,623.036743 782.854309,623.188538 
	C782.560608,623.647583 782.425232,623.954895 782.289856,624.262146 
	C782.289856,624.262146 782.038879,624.036743 781.758057,624.117981 
	C778.431580,623.926331 777.994873,625.838013 778.114258,628.215393 
z"/>
<path fill="#FBC232" opacity="1.000000" stroke="none" 
	d="
M382.999329,611.979187 
	C380.425964,614.279724 377.677734,616.417419 375.334900,618.932678 
	C373.479248,620.924866 372.120850,623.380127 369.880066,625.859741 
	C368.200287,629.737488 367.182068,633.385315 365.818115,638.271667 
	C363.954712,631.149475 359.239258,630.662964 353.690155,630.942993 
	C345.466034,631.357971 342.360992,634.139221 342.643738,642.484375 
	C342.703278,644.241516 343.657684,646.745789 344.980164,647.459412 
	C346.248810,648.143982 348.692719,647.287476 350.330200,646.503113 
	C352.825470,645.307678 355.070984,643.590820 357.422546,642.095398 
	C357.737213,642.510437 358.051880,642.925476 358.366547,643.340515 
	C357.190216,645.094910 355.831757,646.760315 354.912964,648.640503 
	C354.439667,649.609070 354.243713,651.338684 354.793121,652.071899 
	C357.031067,655.058777 359.605621,657.793335 362.565979,661.209229 
	C367.621246,655.691345 374.271149,653.489319 381.992950,654.985474 
	C386.704865,655.587769 390.325439,657.134460 393.344269,661.593750 
	C395.777374,665.187744 400.604950,667.205933 404.472229,669.769348 
	C407.431702,671.730957 407.678680,673.497864 405.054413,676.088745 
	C400.477661,680.607117 396.161957,685.389893 391.465851,690.287720 
	C373.276581,680.201965 357.817413,666.843445 343.789886,651.801758 
	C316.887512,622.954285 297.821472,589.693542 289.875397,550.877319 
	C286.860199,536.148132 286.531464,520.869019 285.335205,505.241211 
	C309.905853,491.282898 335.429901,481.028656 361.835541,472.987305 
	C369.857391,470.544403 378.187103,469.112518 386.321533,467.618042 
	C386.031311,469.158752 385.844849,470.311859 385.552094,471.437286 
	C381.042084,488.775085 380.265015,506.356750 383.233337,523.941650 
	C384.692169,532.584045 387.639771,540.975098 389.533875,549.404419 
	C387.092133,548.726685 385.030182,548.124451 382.883118,547.359863 
	C382.797974,547.197449 382.437378,547.132324 382.391479,546.856628 
	C381.923737,545.989441 381.501892,545.397949 381.061432,544.584839 
	C380.936768,544.057129 380.727631,543.861023 380.342285,543.422791 
	C372.844696,532.213623 366.296448,520.386597 351.158508,517.390991 
	C352.017426,515.362366 352.766998,513.592102 353.516541,511.821869 
	C353.082611,511.675903 352.648682,511.529968 352.214722,511.384003 
	C351.403992,513.569214 350.180573,515.700867 349.888336,517.953308 
	C349.533173,520.690979 349.962982,523.530457 349.624146,526.336548 
	C346.725555,526.551575 344.257629,526.897827 341.786102,526.925354 
	C338.514069,526.961853 334.618347,527.836792 332.103882,526.401306 
	C327.794739,523.941284 327.130615,527.421448 325.216553,529.003052 
	C333.429474,529.003052 341.642395,529.003052 350.193878,529.122437 
	C355.003601,531.123291 359.474792,533.004761 364.175415,534.982788 
	C361.513184,540.461243 355.734528,536.581726 352.809906,538.784729 
	C358.135406,540.733582 363.619263,542.740356 369.290283,545.036743 
	C374.460510,549.115173 381.533478,549.903076 384.928955,556.404785 
	C387.645294,558.220337 390.307312,559.680603 392.931152,561.344116 
	C392.892975,561.547424 393.111847,561.898438 393.123779,562.207092 
	C393.380859,563.071716 393.625977,563.627747 393.850220,564.454224 
	C394.084686,565.182068 394.339996,565.639465 394.621094,566.418518 
	C394.661407,567.170044 394.675964,567.599915 394.481750,568.239929 
	C393.794891,569.562805 393.316803,570.675598 392.837250,571.821533 
	C392.835815,571.854675 392.772369,571.835388 392.410156,571.827637 
	C387.660522,569.709045 383.273132,567.598206 378.600677,565.259766 
	C375.909363,563.931091 373.572021,562.615723 371.070435,561.810791 
	C369.609772,561.340759 366.963043,561.037842 366.442261,561.778870 
	C364.263336,564.879272 361.804413,564.082520 358.962097,563.396667 
	C357.640900,563.077820 355.934174,563.343201 354.682343,563.935547 
	C350.514862,565.907593 347.556824,569.076965 347.824585,573.953796 
	C348.092133,578.826477 351.562531,581.201599 355.937317,582.079041 
	C360.536499,583.001526 365.014343,583.710754 364.534607,590.027100 
	C364.515503,590.278625 365.191742,590.583008 365.654083,590.950134 
	C366.908752,588.450684 368.373047,586.167053 369.221893,583.673889 
	C370.171692,580.884155 370.620483,577.915405 371.180420,575.004028 
	C371.616608,572.735962 371.889008,570.436401 372.657471,568.196655 
	C378.678925,567.516602 383.480042,568.434631 387.123108,573.489197 
	C388.010925,574.721008 390.901337,574.509460 393.246674,574.990662 
	C394.415161,575.758667 395.388885,576.377991 395.970123,577.256897 
	C398.839264,581.595093 401.627472,585.987671 404.380463,590.400818 
	C404.770844,591.026550 404.811859,591.870300 404.932434,592.312134 
	C398.637054,594.348328 392.613861,596.296448 385.886078,598.472473 
	C390.026978,601.540100 392.930420,603.691040 395.887390,605.881592 
	C394.216736,609.856567 390.455566,608.997803 387.083038,609.133362 
	C386.897156,609.104553 386.711304,609.075745 386.122559,608.996704 
	C385.494507,609.291870 385.269257,609.637268 385.044006,609.982666 
	C384.760040,610.233337 384.476044,610.484009 383.880798,611.020325 
	C383.271423,611.438843 383.081360,611.663208 382.999329,611.979187 
M322.503845,535.739624 
	C321.556152,534.584473 320.649414,533.392578 319.653168,532.280884 
	C316.548737,528.816711 315.163208,529.015686 312.852722,532.699951 
	C315.552643,535.260010 318.098114,537.780273 320.799591,540.120422 
	C321.206635,540.473022 322.342072,539.984741 323.787567,539.637451 
	C325.786224,539.843811 327.784882,540.050232 329.211060,540.197510 
	C330.571381,537.600830 331.958710,534.952637 334.102570,530.860291 
	C330.948853,532.121521 329.179413,532.716431 327.515411,533.527588 
	C325.970062,534.280884 324.537201,535.264954 322.503845,535.739624 
M344.976929,548.840942 
	C345.849365,545.315430 346.721802,541.789856 347.588593,538.287231 
	C342.028870,537.518677 342.028870,537.518677 340.961395,545.661377 
	C338.006439,545.960876 335.006866,546.264832 332.007263,546.568848 
	C332.047180,547.420898 332.087097,548.272888 332.126984,549.124939 
	C336.122223,549.124939 340.117432,549.124939 344.976929,548.840942 
M313.529236,521.439331 
	C310.806915,521.269836 308.084564,521.100403 303.814240,520.834595 
	C306.009277,523.102112 307.392822,525.712463 309.035339,525.887085 
	C310.595581,526.053040 314.432343,526.021790 313.529236,521.439331 
z"/>
<path fill="#2A3656" opacity="1.000000" stroke="none" 
	d="
M626.888184,320.084167 
	C626.191589,321.902130 625.665833,324.105164 624.288635,325.004913 
	C613.933105,331.770111 603.412231,338.282257 592.930115,344.852997 
	C592.525635,345.106567 591.990112,345.151337 590.868774,345.587036 
	C587.807739,345.255920 585.393616,344.631165 582.785828,343.693726 
	C566.549133,340.179321 550.506165,336.977570 534.085571,333.569458 
	C529.903198,332.957825 526.107727,332.389465 522.292236,332.172302 
	C480.978607,329.821228 440.926483,335.770630 402.492645,351.235382 
	C367.934784,365.140533 337.270233,385.049896 311.319031,411.981171 
	C309.127625,414.255249 306.368896,415.982697 303.873718,417.964081 
	C309.509735,407.413330 315.115631,396.846283 320.806641,386.325287 
	C321.975342,384.164703 323.462280,382.176270 325.158142,379.566193 
	C330.363647,372.688477 335.213562,366.353027 340.063446,360.017578 
	C347.413483,353.076111 354.486847,345.811096 362.161499,339.249298 
	C394.949188,311.215912 432.893616,294.655243 475.607544,288.814117 
	C527.969360,281.653625 577.053284,291.116638 622.851440,317.520630 
	C624.143738,318.265656 625.394592,319.082367 626.888184,320.084167 
z"/>
<path fill="#F75F56" opacity="1.000000" stroke="none" 
	d="
M303.908112,417.983246 
	C306.368896,415.982697 309.127625,414.255249 311.319031,411.981171 
	C337.270233,385.049896 367.934784,365.140533 402.492645,351.235382 
	C440.926483,335.770630 480.978607,329.821228 522.292236,332.172302 
	C526.107727,332.389465 529.903198,332.957825 533.584045,333.641205 
	C530.297729,333.932465 527.135376,333.950714 523.973022,333.958008 
	C509.241058,333.992035 494.508179,333.948059 479.777985,334.125763 
	C477.195007,334.156891 474.224701,334.467346 472.120911,335.764252 
	C465.810486,339.654419 458.935211,340.472992 451.811951,341.131073 
	C448.228149,341.462128 444.770721,343.160645 441.256134,344.240814 
	C441.431183,344.852875 441.606232,345.464966 441.781281,346.077057 
	C444.198517,345.881134 446.646515,345.865387 449.027771,345.458679 
	C460.541412,343.492218 470.853455,346.836945 480.679047,352.430176 
	C482.481506,353.456207 484.228638,354.579376 486.001343,355.657684 
	C486.466949,355.257172 486.932587,354.856659 487.398224,354.456177 
	C487.938843,356.294678 488.523468,358.121582 489.011047,359.974060 
	C490.074554,364.014648 489.867950,366.244293 484.317596,365.542480 
	C481.684204,365.209473 478.578461,367.854492 475.827118,369.400330 
	C472.218018,371.428009 468.924957,374.112488 465.161255,375.740875 
	C462.165436,377.036987 458.666046,377.164948 455.393250,377.826385 
	C451.921997,378.527924 448.472382,379.696014 444.980164,379.836548 
	C441.218506,379.987915 437.418396,379.183624 433.892181,378.561890 
	C435.640564,375.695282 438.579407,372.920074 438.336273,370.459198 
	C437.740936,364.432617 432.537628,362.346039 426.708344,365.162079 
	C411.728241,372.398712 397.823547,381.278229 386.693726,393.800751 
	C379.429535,401.973816 372.580383,410.547638 366.005890,419.288361 
	C362.706390,423.674957 363.763275,428.206055 367.522064,430.623688 
	C371.452515,433.151733 375.191223,431.990723 378.434326,427.317841 
	C380.886536,423.784607 383.414764,420.304138 386.094360,417.096985 
	C393.441010,422.767090 393.726959,424.602356 388.936493,431.873474 
	C388.310242,432.824066 388.556122,434.327118 388.315704,435.558228 
	C387.617401,439.134125 387.720642,443.194641 385.980927,446.171906 
	C382.154358,452.720551 383.006348,455.502228 390.234558,456.658051 
	C388.924286,460.423737 387.650055,463.820648 386.375824,467.217590 
	C378.187103,469.112518 369.857391,470.544403 361.835541,472.987305 
	C335.429901,481.028656 309.905853,491.282898 285.376648,504.767731 
	C284.432251,479.071503 289.953217,454.364227 298.610352,430.228210 
	C299.789093,426.941895 301.036530,423.680237 302.862732,420.110870 
	C303.635834,419.185028 303.798309,418.555450 303.960754,417.925873 
	C303.960785,417.925873 303.942505,418.002411 303.908112,417.983246 
z"/>
<path fill="#FBC232" opacity="1.000000" stroke="none" 
	d="
M705.035645,602.382629 
	C699.203491,612.336731 693.371338,622.290833 687.439453,632.547974 
	C678.900330,642.387634 670.484863,651.945801 661.993958,661.436462 
	C660.798157,662.773010 659.233643,663.779785 657.532959,665.072510 
	C655.131042,660.352051 654.803711,655.920410 658.268860,651.177917 
	C661.742737,646.423645 659.684509,641.377441 657.206238,636.628662 
	C656.334595,634.958435 655.286072,632.996033 655.424561,631.255005 
	C655.840088,626.030701 653.260986,623.136169 647.818054,623.780151 
	C645.028198,624.110291 642.271545,624.870361 639.553040,625.626892 
	C630.545593,628.134094 627.511780,620.493286 623.009766,615.693542 
	C620.606689,613.131592 619.529358,609.654175 621.280823,605.973816 
	C621.623779,605.253174 621.872681,604.276245 621.680359,603.544983 
	C619.622253,595.721375 624.128906,591.461731 630.330444,587.318604 
	C632.752319,583.579590 634.862610,580.437683 637.304749,576.801697 
	C635.696045,574.864868 632.549805,572.491455 634.673706,567.588562 
	C637.542358,560.966370 642.928894,565.929871 646.775391,564.309265 
	C645.393738,559.405029 644.047974,554.628052 642.520935,549.207886 
	C641.073486,550.110168 640.066162,550.836182 638.972656,551.392883 
	C637.813110,551.983154 636.571594,552.412598 635.365906,552.912231 
	C634.895752,552.344238 634.425537,551.776184 633.955383,551.208191 
	C636.974976,547.728516 639.959473,544.216187 643.093933,540.843201 
	C643.301270,540.620117 645.393311,541.575500 645.360168,541.786011 
	C644.593628,546.650818 650.881531,546.658020 651.339905,550.587646 
	C652.000977,550.401672 652.662048,550.215637 653.500854,550.041382 
	C653.947327,550.008118 654.108704,549.851929 654.270630,549.491333 
	C654.378601,549.398132 654.575684,549.191772 654.738403,549.161560 
	C655.114685,549.004578 655.210571,548.817383 655.273438,548.497375 
	C655.358154,548.424927 655.525085,548.277100 655.798462,548.255066 
	C656.618103,547.805359 657.164429,547.377686 657.796631,546.924561 
	C657.882568,546.899048 658.032593,546.801086 658.399902,546.849915 
	C660.446533,546.270691 662.079712,545.424133 663.814331,545.058960 
	C667.775146,544.224976 671.785522,543.626648 676.160278,542.902710 
	C681.546631,540.739258 681.867188,538.335999 678.064514,529.693176 
	C677.580322,530.595215 677.227844,531.251831 676.599365,532.137817 
	C675.956787,533.766968 675.940979,535.422180 675.147644,536.510803 
	C673.692627,538.507446 671.779114,540.169861 670.056763,541.971619 
	C668.876160,540.740295 667.527954,539.627625 666.552856,538.250793 
	C664.931213,535.960999 663.511169,535.782166 661.350708,537.705444 
	C660.372314,538.576355 658.597412,538.552551 656.973755,538.640137 
	C656.180237,536.560547 655.596924,534.775391 655.218628,532.888428 
	C655.676086,532.588379 655.828003,532.330933 655.931274,532.021851 
	C655.982971,532.029480 656.002625,531.926697 656.350708,531.901245 
	C660.105591,529.240662 663.512451,526.605469 667.186890,523.779663 
	C669.337097,521.457458 671.219543,519.325867 673.448486,517.097534 
	C678.920349,515.389954 683.969971,512.888123 689.194580,512.443542 
	C693.565430,512.071594 698.144897,514.087036 702.622498,515.087708 
	C703.568848,515.299255 704.947327,515.415283 705.322815,516.050537 
	C708.164307,520.857666 709.926270,519.738098 711.005127,514.701111 
	C714.854431,516.345154 717.548035,515.748840 719.207642,511.846222 
	C719.573914,510.984924 721.589600,510.641907 722.906616,510.418060 
	C724.311829,510.179169 725.789062,510.364227 728.797974,510.364227 
	C724.676758,507.192688 721.613892,505.056976 724.877014,501.154541 
	C726.408447,501.207275 727.594910,501.154694 728.781433,501.102112 
	C730.314514,535.388306 722.830688,567.728882 707.310242,598.467163 
	C704.089417,594.623108 701.337158,590.748413 698.584900,586.873657 
	C697.981201,587.237366 697.377441,587.601013 696.773743,587.964661 
	C699.527710,592.770630 702.281738,597.576660 705.035645,602.382629 
M654.121094,574.256592 
	C656.985352,574.883301 659.849670,575.509949 662.775818,576.884094 
	C667.092346,579.207397 671.380066,581.589233 675.775391,583.752441 
	C676.162537,583.943054 677.556152,582.865540 677.964661,582.100586 
	C679.632141,578.978333 681.953125,579.678406 684.768005,580.181641 
	C689.082214,580.952820 693.557800,581.385681 697.899048,581.066406 
	C699.066101,580.980530 700.293579,577.732117 700.813660,575.756531 
	C700.936951,575.288147 698.405334,573.871826 696.934326,573.318970 
	C695.927490,572.940552 694.637146,573.244934 693.482422,573.345459 
	C690.612854,573.595276 687.625977,574.256653 687.808960,569.613037 
	C687.831787,569.034851 685.909302,568.380005 684.484436,567.515747 
	C684.484436,569.888977 684.484436,571.301392 684.484436,574.543762 
	C681.332092,572.251953 679.169067,570.679443 676.874268,568.403076 
	C675.567688,566.468262 674.261108,564.533508 672.835449,562.422424 
	C670.876831,565.383240 670.030457,566.662659 668.884460,567.310608 
	C667.472839,566.200073 666.061218,565.089539 665.056885,564.299438 
	C660.866333,565.320740 656.739136,565.542236 653.482178,567.340088 
	C650.201660,569.151001 647.785889,572.528381 644.991150,575.219360 
	C645.277039,575.621948 645.562927,576.024597 645.848755,576.427185 
	C648.334351,575.663818 650.819946,574.900513 654.121094,574.256592 
M697.774109,559.159912 
	C692.756226,558.062378 690.427246,560.813416 691.419739,565.084045 
	C697.387512,565.084045 702.991699,565.084045 709.186707,565.084045 
	C706.256714,560.865051 704.174500,556.789917 697.774109,559.159912 
z"/>
<path fill="#FBC232" opacity="1.000000" stroke="none" 
	d="
M222.970917,318.865387 
	C216.159882,292.472198 231.640915,266.186798 257.743958,259.303467 
	C283.390869,252.540405 309.703644,268.074066 316.557404,294.023804 
	C323.500580,320.311890 308.289795,346.703461 282.314697,353.437012 
	C256.490692,360.131348 231.174225,345.540405 222.970917,318.865387 
z"/>
<path fill="#02A0D2" opacity="1.000000" stroke="none" 
	d="
M681.921631,734.924377 
	C676.465576,724.678650 676.841187,715.049011 683.685608,706.054871 
	C690.487915,697.115906 699.762695,693.747009 710.623962,696.135376 
	C721.122070,698.443848 727.700012,705.358521 730.452820,715.741699 
	C733.480042,727.160095 727.683594,739.592041 716.897461,745.121765 
	C706.013550,750.701599 692.792603,748.288574 685.052429,739.267029 
	C683.972290,738.008118 683.069519,736.596985 681.921631,734.924377 
z"/>
<path fill="#FD5144" opacity="1.000000" stroke="none" 
	d="
M339.900635,359.722290 
	C335.213562,366.353027 330.363647,372.688477 325.228027,379.252075 
	C318.288818,372.783630 311.635345,366.086975 305.028656,359.437439 
	C310.946228,353.856415 316.711487,348.419037 322.318604,343.130859 
	C327.466064,347.946442 333.601929,353.686707 339.900635,359.722290 
z"/>
<path fill="#2D3A59" opacity="1.000000" stroke="none" 
	d="
M786.529053,617.207031 
	C786.183655,605.160522 786.087769,592.833923 786.084290,580.507324 
	C786.067505,520.696289 786.072083,460.885284 786.090454,401.074280 
	C786.091003,399.261200 786.327026,397.448181 786.721375,395.320923 
	C787.271362,397.463379 787.798096,399.919861 787.799561,402.376678 
	C787.839905,470.931458 787.839539,539.486267 787.780579,608.041016 
	C787.778015,611.003296 787.155151,613.965027 786.529053,617.207031 
z"/>
<path fill="#060922" opacity="1.000000" stroke="none" 
	d="
M693.395081,632.626526 
	C693.954163,632.035889 694.867493,631.082336 695.780212,631.083008 
	C720.293640,631.101013 744.807007,631.216980 769.637146,631.577087 
	C766.987732,632.111877 764.022461,632.612854 761.055298,632.623718 
	C738.620056,632.705994 716.184509,632.692139 693.395081,632.626526 
z"/>
<path fill="#060922" opacity="1.000000" stroke="none" 
	d="
M766.515930,377.034729 
	C765.725281,377.420837 764.477417,377.951813 763.228577,377.954346 
	C739.485352,378.002472 715.742004,377.992340 691.998718,377.969910 
	C691.190857,377.969147 690.383179,377.714935 689.283508,377.278564 
	C714.680481,376.963348 740.369385,376.948456 766.515930,377.034729 
z"/>
<path fill="#2D3A59" opacity="1.000000" stroke="none" 
	d="
M778.430176,628.128113 
	C777.994873,625.838013 778.431580,623.926331 781.873840,624.240601 
	C781.095642,625.534973 779.920898,626.787903 778.430176,628.128113 
z"/>
<path fill="#2D3A59" opacity="1.000000" stroke="none" 
	d="
M784.579224,621.349976 
	C784.681335,620.495728 785.061340,619.440674 785.747559,618.196106 
	C785.654846,619.054138 785.255981,620.101685 784.579224,621.349976 
z"/>
<path fill="#2D3A59" opacity="1.000000" stroke="none" 
	d="
M786.621277,392.727783 
	C786.116821,392.166168 785.587952,391.290405 785.098755,390.068359 
	C785.624512,390.619263 786.110718,391.516479 786.621277,392.727783 
z"/>
<path fill="#2D3A59" opacity="1.000000" stroke="none" 
	d="
M783.247986,386.437012 
	C782.889954,386.348022 782.468445,385.981445 782.025269,385.310730 
	C782.397278,385.390869 782.790955,385.775177 783.247986,386.437012 
z"/>
<path fill="#2A3656" opacity="1.000000" stroke="none" 
	d="
M303.674652,418.054810 
	C303.798309,418.555450 303.635834,419.185028 303.132111,419.885132 
	C302.990112,419.365051 303.189331,418.774414 303.674652,418.054810 
z"/>
<path fill="#2D3A59" opacity="1.000000" stroke="none" 
	d="
M782.536682,624.173279 
	C782.425232,623.954895 782.560608,623.647583 782.937744,623.240845 
	C783.047424,623.455750 782.915466,623.770081 782.536682,624.173279 
z"/>
<path fill="#2D3A59" opacity="1.000000" stroke="none" 
	d="
M784.106445,387.668762 
	C783.875183,387.707031 783.616943,387.475861 783.334351,386.979492 
	C783.566528,386.942627 783.822998,387.170990 784.106445,387.668762 
z"/>
<path fill="#2D3A59" opacity="1.000000" stroke="none" 
	d="
M783.404968,623.067993 
	C783.295898,622.868225 783.433105,622.567627 783.792603,622.140076 
	C783.893616,622.331116 783.772461,622.649170 783.404968,623.067993 
z"/>
<path fill="#FBFDFC" opacity="1.000000" stroke="none" 
	d="
M386.321533,467.618042 
	C387.650055,463.820648 388.924286,460.423737 390.221466,456.626282 
	C390.244415,456.225800 390.196564,456.178650 390.476715,455.968567 
	C391.966339,452.885040 393.175781,450.011627 394.623108,446.885559 
	C403.040283,429.568970 414.476227,415.370361 429.999573,404.222778 
	C463.818451,379.936798 500.752502,372.906677 541.051758,382.808563 
	C555.730652,386.415344 569.003357,393.152863 581.874634,401.468903 
	C594.603516,410.570862 604.781555,421.690643 613.715454,434.467133 
	C618.656860,445.212738 623.504028,455.607056 628.519653,466.381317 
	C641.208496,512.689026 631.188293,553.323120 599.984741,588.982361 
	C599.984741,588.982361 600.000000,589.000000 599.725342,589.036255 
	C599.254333,589.366211 599.057922,589.659973 598.861511,589.953735 
	C598.288757,590.416565 597.715942,590.879395 596.768127,591.725281 
	C595.882202,592.722656 595.371338,593.337036 594.860535,593.951416 
	C594.502014,593.979126 594.234741,594.149719 593.804504,594.822998 
	C593.264893,595.383911 593.094849,595.657043 593.040222,596.002014 
	C593.040222,596.002014 592.998291,595.991150 592.749390,596.068726 
	C592.317261,596.421875 592.134033,596.697510 591.950806,596.973083 
	C591.950745,596.973083 591.998901,597.000549 591.727661,597.049316 
	C591.244446,597.380737 591.032532,597.663330 590.820557,597.945862 
	C577.314575,608.693726 562.640930,617.292236 545.386658,622.643250 
	C530.845886,626.223022 516.819031,628.941223 502.467072,627.907166 
	C493.583008,627.267090 484.767487,625.676086 475.921173,624.511902 
	C464.815460,619.822998 453.121796,616.149658 442.770599,610.157349 
	C432.577209,604.256470 423.744537,596.004944 413.887146,588.296265 
	C406.009552,576.064087 398.559601,564.320374 391.069489,552.579346 
	C391.029358,552.581970 391.060699,552.506287 391.113037,552.225586 
	C390.748108,551.123291 390.330872,550.301575 389.913635,549.479919 
	C387.639771,540.975098 384.692169,532.584045 383.233337,523.941650 
	C380.265015,506.356750 381.042084,488.775085 385.552094,471.437286 
	C385.844849,470.311859 386.031311,469.158752 386.321533,467.618042 
M616.979858,537.166199 
	C620.367615,527.081482 622.176819,516.830322 622.188171,506.081421 
	C622.201843,493.097290 621.204956,480.393372 616.911621,467.316437 
	C616.292480,465.778107 615.617554,464.259613 615.062744,462.698425 
	C608.261047,443.557983 596.510803,428.000092 580.797180,415.306793 
	C561.579956,399.783295 539.312988,391.866882 514.958984,390.144714 
	C497.922424,388.939972 481.277740,392.121979 465.264435,398.084747 
	C437.822937,408.302887 417.888641,427.075958 404.666901,452.886047 
	C393.926117,473.852997 390.584869,496.274200 394.012634,519.603821 
	C397.386261,542.564758 406.868805,562.817810 422.521942,579.865845 
	C436.353333,594.929749 453.303894,605.223938 473.015778,611.263855 
	C488.071777,615.877258 503.348572,616.350159 518.807007,615.948853 
	C519.547302,615.929626 520.273010,615.344543 521.897766,615.010864 
	C534.737000,614.636597 546.713379,610.733215 558.128601,605.320007 
	C572.987366,598.273865 585.573059,588.273987 596.218994,575.537170 
	C605.644958,564.260010 612.464966,551.814697 616.979858,537.166199 
z"/>
<path fill="#059DCB" opacity="1.000000" stroke="none" 
	d="
M600.374390,588.989807 
	C631.188293,553.323120 641.208496,512.689026 628.875977,466.212952 
	C630.709167,465.780609 632.462524,465.566193 633.983337,466.063171 
	C651.023376,471.631439 668.027527,477.309357 684.991821,483.315979 
	C681.923767,486.865723 681.511414,492.898987 674.995789,492.655426 
	C674.039490,492.584534 673.341553,492.417053 672.221008,492.173645 
	C670.845886,492.514221 669.893372,492.930664 668.681641,493.557678 
	C666.131409,494.795197 663.840332,495.822144 661.026001,497.083649 
	C663.893494,499.253510 666.440613,501.180939 669.152222,503.450531 
	C669.524109,505.044708 670.236267,506.485657 669.850647,507.515656 
	C668.267822,511.744080 670.090698,514.620850 673.102051,517.194275 
	C671.219543,519.325867 669.337097,521.457458 666.855957,523.727539 
	C665.442932,522.997864 664.628479,522.129700 662.995972,520.389343 
	C660.504089,524.500366 658.253357,528.213562 656.002625,531.926697 
	C656.002625,531.926697 655.982971,532.029480 655.721436,532.116089 
	C655.201172,532.402954 655.052429,532.665466 655.013611,532.990295 
	C655.596924,534.775391 656.180237,536.560547 657.029053,538.969604 
	C658.964172,540.680664 660.633850,541.767700 662.539246,543.008179 
	C660.994080,544.308594 659.513367,545.554871 658.032593,546.801086 
	C658.032593,546.801086 657.882568,546.899048 657.504944,546.904785 
	C656.593262,547.366089 656.059204,547.821594 655.525085,548.277100 
	C655.525085,548.277100 655.358154,548.424927 655.066284,548.451294 
	C654.444885,548.642151 654.378662,548.880127 654.575684,549.191772 
	C654.575684,549.191772 654.378601,549.398132 654.080811,549.421204 
	C653.470764,549.514282 653.317444,549.709412 653.323120,550.029602 
	C652.662048,550.215637 652.000977,550.401672 651.339905,550.587646 
	C650.881531,546.658020 644.593628,546.650818 645.360168,541.786011 
	C645.393311,541.575500 643.301270,540.620117 643.093933,540.843201 
	C639.959473,544.216187 636.974976,547.728516 633.955383,551.208191 
	C634.425537,551.776184 634.895752,552.344238 635.365906,552.912231 
	C636.571594,552.412598 637.813110,551.983154 638.972656,551.392883 
	C640.066162,550.836182 641.073486,550.110168 642.520935,549.207886 
	C644.047974,554.628052 645.393738,559.405029 646.775391,564.309265 
	C642.928894,565.929871 637.542358,560.966370 634.673706,567.588562 
	C632.549805,572.491455 635.696045,574.864868 637.304749,576.801697 
	C634.862610,580.437683 632.752319,583.579590 630.388245,586.984375 
	C629.138916,586.463196 628.143250,585.679199 627.118103,584.872009 
	C628.573181,582.859985 630.432739,581.122559 631.157349,578.997925 
	C631.653503,577.543396 630.847656,575.392700 630.007080,573.900635 
	C629.779663,573.497009 627.266052,574.225342 625.877197,574.669617 
	C623.940552,575.289307 621.794434,577.125732 620.232361,576.685791 
	C615.918030,575.470825 613.747864,577.403748 611.618530,580.583130 
	C608.964600,584.545837 606.577576,589.035461 600.374390,588.989807 
z"/>
<path fill="#FBC232" opacity="1.000000" stroke="none" 
	d="
M475.925232,624.864624 
	C484.767487,625.676086 493.583008,627.267090 502.467072,627.907166 
	C516.819031,628.941223 530.845886,626.223022 545.126892,622.922974 
	C546.723999,623.352539 547.977173,623.810059 549.185486,624.365417 
	C557.067566,627.987915 557.333191,630.176208 553.236389,637.697693 
	C550.591614,642.553528 549.825500,648.401367 547.511475,653.483154 
	C546.492065,655.721924 543.991211,658.053955 541.678772,658.761658 
	C537.926514,659.910034 535.534668,661.835327 534.373352,665.398621 
	C531.570251,673.999207 524.864136,679.029480 517.882690,683.921448 
	C516.560730,684.847900 515.534546,686.631531 515.056763,688.225037 
	C514.352783,690.572693 514.263794,693.104736 513.921936,695.494446 
	C506.992767,696.997559 503.280853,695.206055 501.394897,688.345154 
	C499.508118,681.481384 498.444275,674.382751 497.190796,667.356567 
	C496.345001,662.615540 496.019592,657.775635 495.051758,653.064087 
	C494.058716,648.229980 491.892731,644.222961 487.125092,641.619812 
	C480.774567,638.152344 477.601532,632.096313 475.925232,624.864624 
z"/>
<path fill="#0F9FBB" opacity="1.000000" stroke="none" 
	d="
M381.730133,654.703430 
	C374.271149,653.489319 367.621246,655.691345 362.565979,661.209229 
	C359.605621,657.793335 357.031067,655.058777 354.793121,652.071899 
	C354.243713,651.338684 354.439667,649.609070 354.912964,648.640503 
	C355.831757,646.760315 357.190216,645.094910 358.366547,643.340515 
	C358.051880,642.925476 357.737213,642.510437 357.422546,642.095398 
	C355.070984,643.590820 352.825470,645.307678 350.330200,646.503113 
	C348.692719,647.287476 346.248810,648.143982 344.980164,647.459412 
	C343.657684,646.745789 342.703278,644.241516 342.643738,642.484375 
	C342.360992,634.139221 345.466034,631.357971 353.690155,630.942993 
	C359.239258,630.662964 363.954712,631.149475 365.818115,638.271667 
	C367.182068,633.385315 368.200287,629.737488 369.607727,626.069824 
	C370.518433,627.975403 370.766785,630.033386 371.622528,631.796509 
	C373.077423,634.794006 374.914764,637.605896 376.591370,640.495789 
	C376.232117,640.930054 375.872864,641.364319 375.513580,641.798523 
	C373.592194,641.699097 371.670868,641.597900 369.748596,641.519897 
	C369.724487,641.518921 369.657471,641.816162 369.666382,641.970947 
	C369.675598,642.130371 369.753326,642.285889 369.511780,642.737854 
	C366.346466,642.361389 363.685516,639.432556 359.874908,642.211670 
	C363.321655,643.830017 366.203033,645.459045 369.286743,646.472534 
	C370.289307,646.802002 371.820587,645.522888 373.110046,644.979553 
	C373.926941,646.344604 374.743805,647.709717 375.571014,649.092041 
	C374.657593,649.831787 373.829773,650.502136 371.710785,652.218140 
	C375.770874,653.135010 378.619080,653.778198 381.730133,654.703430 
z"/>
<path fill="#0F9FBB" opacity="1.000000" stroke="none" 
	d="
M391.109619,552.576721 
	C398.559601,564.320374 406.009552,576.064087 413.630493,588.103760 
	C411.811005,590.654663 406.362122,589.965820 407.633606,595.466064 
	C402.834106,592.234253 401.406952,593.101685 400.165375,599.968079 
	C401.524506,600.605896 402.873199,601.238770 404.221863,601.871643 
	C402.559052,603.010132 400.926971,604.196960 399.227081,605.277039 
	C395.632690,607.560913 393.161407,612.898132 387.291748,609.396118 
	C390.455566,608.997803 394.216736,609.856567 395.887390,605.881592 
	C392.930420,603.691040 390.026978,601.540100 385.886078,598.472473 
	C392.613861,596.296448 398.637054,594.348328 404.932434,592.312134 
	C404.811859,591.870300 404.770844,591.026550 404.380463,590.400818 
	C401.627472,585.987671 398.839264,581.595093 395.970123,577.256897 
	C395.388885,576.377991 394.415161,575.758667 393.230347,574.599487 
	C392.816345,573.397949 392.794373,572.616638 392.772369,571.835388 
	C392.772369,571.835388 392.835815,571.854675 393.183197,571.758850 
	C393.917236,570.451965 394.303894,569.240906 394.690552,568.029846 
	C394.675964,567.599915 394.661407,567.170044 394.739990,566.136108 
	C394.512451,565.082703 394.191772,564.633179 393.871094,564.183716 
	C393.625977,563.627747 393.380859,563.071716 393.274170,562.142395 
	C393.412598,561.769043 393.391907,561.315125 393.391907,561.315125 
	C393.391907,561.315125 392.969330,561.140869 392.969330,561.140869 
	C390.307312,559.680603 387.645294,558.220337 385.235596,556.499268 
	C388.228363,557.360596 388.072998,556.022217 387.078949,554.261047 
	C385.786346,551.970947 384.345337,549.764648 382.968231,547.522278 
	C385.030182,548.124451 387.092133,548.726685 389.533844,549.404419 
	C390.330872,550.301575 390.748108,551.123291 390.878906,552.484985 
	C390.197388,553.769531 389.802338,554.513977 389.407257,555.258423 
	C389.759155,555.378906 390.111023,555.499390 390.462891,555.619873 
	C390.678467,554.605469 390.894043,553.591125 391.109619,552.576721 
z"/>
<path fill="#FBC232" opacity="1.000000" stroke="none" 
	d="
M404.602356,601.880859 
	C402.873199,601.238770 401.524506,600.605896 400.165375,599.968079 
	C401.406952,593.101685 402.834106,592.234253 407.657654,595.809326 
	C409.529877,599.223633 410.060059,601.983398 404.602356,601.880859 
z"/>
<path fill="#FBC232" opacity="1.000000" stroke="none" 
	d="
M372.875854,644.777954 
	C371.820587,645.522888 370.289307,646.802002 369.286743,646.472534 
	C366.203033,645.459045 363.321655,643.830017 359.874908,642.211670 
	C363.685516,639.432556 366.346466,642.361389 369.602600,643.020203 
	C370.868988,643.530640 371.755341,644.053467 372.875854,644.777954 
z"/>
<path fill="#059DCB" opacity="1.000000" stroke="none" 
	d="
M618.997009,601.274231 
	C618.944885,602.759583 618.892212,603.880188 618.839539,605.000732 
	C618.652405,604.989807 618.465332,604.978821 618.278198,604.967834 
	C618.278198,602.996521 618.278198,601.025269 618.278198,599.053955 
	C618.442932,599.046082 618.607727,599.038208 618.772461,599.030273 
	C618.847107,599.656677 618.921814,600.283020 618.997009,601.274231 
z"/>
<path fill="#059DCB" opacity="1.000000" stroke="none" 
	d="
M595.204590,593.925781 
	C595.371338,593.337036 595.882202,592.722656 596.672974,591.989746 
	C596.484802,592.547546 596.016724,593.223877 595.204590,593.925781 
z"/>
<path fill="#0F9FBB" opacity="1.000000" stroke="none" 
	d="
M385.254639,609.929321 
	C385.269257,609.637268 385.494507,609.291870 385.851074,609.073364 
	C385.907166,609.499878 385.734802,609.725037 385.254639,609.929321 
z"/>
<path fill="#059DCB" opacity="1.000000" stroke="none" 
	d="
M592.178711,596.883118 
	C592.134033,596.697510 592.317261,596.421875 592.750854,596.090271 
	C592.893127,596.357849 592.694885,596.610779 592.178711,596.883118 
z"/>
<path fill="#0F9FBB" opacity="1.000000" stroke="none" 
	d="
M383.213287,611.938049 
	C383.081360,611.663208 383.271423,611.438843 383.795471,611.296814 
	C383.908417,611.573730 383.710358,611.776855 383.213287,611.938049 
z"/>
<path fill="#059DCB" opacity="1.000000" stroke="none" 
	d="
M591.075745,597.862976 
	C591.032532,597.663330 591.244446,597.380737 591.715820,597.024292 
	C591.760498,597.226990 591.545715,597.503540 591.075745,597.862976 
z"/>
<path fill="#059DCB" opacity="1.000000" stroke="none" 
	d="
M593.256714,595.886353 
	C593.094849,595.657043 593.264893,595.383911 593.767944,595.066406 
	C593.910583,595.283447 593.739868,595.557007 593.256714,595.886353 
z"/>
<path fill="#059DCB" opacity="1.000000" stroke="none" 
	d="
M599.107300,589.868774 
	C599.057922,589.659973 599.254333,589.366211 599.718140,589.027466 
	C599.774780,589.249634 599.563965,589.516724 599.107300,589.868774 
z"/>
<path fill="#FD5144" opacity="1.000000" stroke="none" 
	d="
M685.041382,482.957764 
	C668.027527,477.309357 651.023376,471.631439 633.983337,466.063171 
	C632.462524,465.566193 630.709167,465.780609 628.707520,465.832977 
	C623.504028,455.607056 618.656860,445.212738 614.154663,434.434204 
	C616.577881,434.482330 618.640747,435.124878 620.739502,435.279938 
	C622.390320,435.401855 624.957520,435.533569 625.609558,434.603546 
	C628.388672,430.639771 631.636719,426.551331 632.819397,422.014557 
	C635.418762,412.043732 636.109497,401.681610 633.891296,391.497650 
	C632.682190,385.946686 630.794983,380.436768 628.397583,375.288269 
	C626.763306,371.778534 623.341736,369.136108 621.426636,365.710388 
	C620.019165,363.192810 619.757568,360.034637 618.985413,357.161896 
	C619.517029,357.343292 620.048584,357.524689 620.921448,358.148376 
	C622.153564,358.828186 623.044373,359.065735 623.935242,359.303284 
	C632.510803,364.135925 641.183777,368.805298 649.633362,373.848999 
	C657.427673,378.501526 664.982056,383.555817 672.935242,388.940979 
	C673.518066,389.608154 673.807861,389.767487 674.097595,389.926819 
	C674.097595,389.926819 674.012939,389.988739 674.137573,390.192322 
	C674.572205,390.543182 674.882263,390.690491 675.192383,390.837830 
	C675.192383,390.837799 675.057922,390.799225 675.065796,391.198853 
	C675.555908,393.120483 675.872131,394.721191 676.549561,396.150726 
	C679.309998,401.975677 682.459717,407.630829 684.958740,413.562256 
	C692.257385,430.885864 696.573486,449.050842 698.795593,467.652374 
	C699.606567,474.441437 698.926453,481.408661 698.550476,488.265991 
	C693.796692,486.477509 689.419067,484.717621 685.041382,482.957764 
z"/>
<path fill="#FB574C" opacity="1.000000" stroke="none" 
	d="
M618.701660,356.940613 
	C619.757568,360.034637 620.019165,363.192810 621.426636,365.710388 
	C623.341736,369.136108 626.763306,371.778534 628.397583,375.288269 
	C630.794983,380.436768 632.682190,385.946686 633.891296,391.497650 
	C636.109497,401.681610 635.418762,412.043732 632.819397,422.014557 
	C631.636719,426.551331 628.388672,430.639771 625.609558,434.603546 
	C624.957520,435.533569 622.390320,435.401855 620.739502,435.279938 
	C618.640747,435.124878 616.577881,434.482330 614.060364,434.082886 
	C604.781555,421.690643 594.603516,410.570862 582.182129,401.263550 
	C582.335999,399.857025 582.743713,398.706024 582.339966,398.070526 
	C579.990356,394.372101 577.819214,390.864136 583.283020,387.866028 
	C583.715881,387.628510 583.726440,386.364685 583.698792,385.586090 
	C583.499756,379.965820 583.502319,374.320923 582.931641,368.735870 
	C582.264099,362.201782 581.182068,356.179871 574.641846,351.838196 
	C571.325623,349.636688 568.184998,348.098999 564.544312,346.941895 
	C562.521973,346.299194 560.712891,344.985657 558.807678,343.974457 
	C558.965759,343.345306 559.123779,342.716187 559.281860,342.087036 
	C562.204468,342.291321 565.751770,341.514252 567.924255,342.897003 
	C572.995544,346.124969 577.693665,347.105164 582.979553,344.006378 
	C585.393616,344.631165 587.807739,345.255920 590.609863,345.796326 
	C600.137878,349.381104 609.277954,353.050232 618.701660,356.940613 
z"/>
<path fill="#DC4540" opacity="1.000000" stroke="none" 
	d="
M698.926575,488.294556 
	C698.926453,481.408661 699.606567,474.441437 698.795593,467.652374 
	C696.573486,449.050842 692.257385,430.885864 684.958740,413.562256 
	C682.459717,407.630829 679.309998,401.975677 676.549561,396.150726 
	C675.872131,394.721191 675.555908,393.120483 675.135681,391.196716 
	C687.280762,401.615143 700.006531,411.825226 711.135803,423.550629 
	C715.697571,428.356659 717.218445,436.302338 719.416565,443.049774 
	C725.456970,461.591888 729.369873,480.549500 728.924988,500.645813 
	C727.594910,501.154694 726.408447,501.207275 724.623047,500.886444 
	C715.658386,496.440216 707.292480,492.367401 698.926575,488.294556 
z"/>
<path fill="#0F9FBB" opacity="1.000000" stroke="none" 
	d="
M705.114990,602.165344 
	C702.281738,597.576660 699.527710,592.770630 696.773743,587.964661 
	C697.377441,587.601013 697.981201,587.237366 698.584900,586.873657 
	C701.337158,590.748413 704.089417,594.623108 707.014282,598.790283 
	C706.522705,600.037781 705.858521,600.992920 705.114990,602.165344 
z"/>
<path fill="#FB574C" opacity="1.000000" stroke="none" 
	d="
M623.672241,359.113037 
	C623.044373,359.065735 622.153564,358.828186 621.139404,358.336365 
	C621.813843,358.362305 622.611572,358.642548 623.672241,359.113037 
z"/>
<path fill="#DC4540" opacity="1.000000" stroke="none" 
	d="
M674.005737,389.684509 
	C673.807861,389.767487 673.518066,389.608154 673.122009,389.217834 
	C673.315063,389.138641 673.614441,389.290436 674.005737,389.684509 
z"/>
<path fill="#DC4540" opacity="1.000000" stroke="none" 
	d="
M675.100220,390.588165 
	C674.882263,390.690491 674.572205,390.543182 674.164795,390.147522 
	C674.380981,390.045593 674.694519,390.192047 675.100220,390.588165 
z"/>
<path fill="#0F9FBB" opacity="1.000000" stroke="none" 
	d="
M372.234192,568.150879 
	C371.889008,570.436401 371.616608,572.735962 371.180420,575.004028 
	C370.620483,577.915405 370.171692,580.884155 369.221893,583.673889 
	C368.373047,586.167053 366.908752,588.450684 365.654083,590.950134 
	C365.191742,590.583008 364.515503,590.278625 364.534607,590.027100 
	C365.014343,583.710754 360.536499,583.001526 355.937317,582.079041 
	C351.562531,581.201599 348.092133,578.826477 347.824585,573.953796 
	C347.556824,569.076965 350.514862,565.907593 354.682343,563.935547 
	C355.934174,563.343201 357.640900,563.077820 358.962097,563.396667 
	C361.804413,564.082520 364.263336,564.879272 366.442261,561.778870 
	C366.963043,561.037842 369.609772,561.340759 371.070435,561.810791 
	C373.572021,562.615723 375.909363,563.931091 378.537720,565.610657 
	C376.584595,566.843079 374.409393,567.496948 372.234192,568.150879 
z"/>
<path fill="#0F9FBB" opacity="1.000000" stroke="none" 
	d="
M350.053223,526.325928 
	C349.962982,523.530457 349.533173,520.690979 349.888336,517.953308 
	C350.180573,515.700867 351.403992,513.569214 352.214722,511.384003 
	C352.648682,511.529968 353.082611,511.675903 353.516541,511.821869 
	C352.766998,513.592102 352.017426,515.362366 351.158508,517.390991 
	C366.296448,520.386597 372.844696,532.213623 380.076691,543.603271 
	C379.786255,546.676453 378.739136,547.529114 376.169189,546.603210 
	C373.887177,545.780884 371.463989,545.350464 369.103119,544.747131 
	C363.619263,542.740356 358.135406,540.733582 352.809906,538.784729 
	C355.734528,536.581726 361.513184,540.461243 364.175415,534.982788 
	C359.474792,533.004761 355.003601,531.123291 350.178497,528.783630 
	C349.900757,527.658936 349.976990,526.992432 350.053223,526.325928 
z"/>
<path fill="#7B8088" opacity="1.000000" stroke="none" 
	d="
M344.544800,548.982910 
	C340.117432,549.124939 336.122223,549.124939 332.126984,549.124939 
	C332.087097,548.272888 332.047180,547.420898 332.007263,546.568848 
	C335.006866,546.264832 338.006439,545.960876 340.961395,545.661377 
	C342.028870,537.518677 342.028870,537.518677 347.588593,538.287231 
	C346.721802,541.789856 345.849365,545.315430 344.544800,548.982910 
z"/>
<path fill="#059DCB" opacity="1.000000" stroke="none" 
	d="
M369.290283,545.036743 
	C371.463989,545.350464 373.887177,545.780884 376.169189,546.603210 
	C378.739136,547.529114 379.786255,546.676453 380.149780,543.955444 
	C380.727631,543.861023 380.936768,544.057129 381.045410,544.885864 
	C381.511139,545.983154 381.974274,546.557739 382.437378,547.132324 
	C382.437378,547.132324 382.797974,547.197449 382.883118,547.359863 
	C384.345337,549.764648 385.786346,551.970947 387.078949,554.261047 
	C388.072998,556.022217 388.228363,557.360596 385.181274,556.144043 
	C381.533478,549.903076 374.460510,549.115173 369.290283,545.036743 
z"/>
<path fill="#7B8088" opacity="1.000000" stroke="none" 
	d="
M349.624146,526.336548 
	C349.976990,526.992432 349.900757,527.658936 349.839935,528.664246 
	C341.642395,529.003052 333.429474,529.003052 325.216553,529.003052 
	C327.130615,527.421448 327.794739,523.941284 332.103882,526.401306 
	C334.618347,527.836792 338.514069,526.961853 341.786102,526.925354 
	C344.257629,526.897827 346.725555,526.551575 349.624146,526.336548 
z"/>
<path fill="#0F9FBB" opacity="1.000000" stroke="none" 
	d="
M323.140564,539.885498 
	C322.342072,539.984741 321.206635,540.473022 320.799591,540.120422 
	C318.098114,537.780273 315.552643,535.260010 312.852722,532.699951 
	C315.163208,529.015686 316.548737,528.816711 319.653168,532.280884 
	C320.649414,533.392578 321.556152,534.584473 322.768311,536.321655 
	C323.068726,537.897644 323.104645,538.891541 323.140564,539.885498 
z"/>
<path fill="#7B8088" opacity="1.000000" stroke="none" 
	d="
M323.464050,539.761475 
	C323.104645,538.891541 323.068726,537.897644 323.043823,536.525513 
	C324.537201,535.264954 325.970062,534.280884 327.515411,533.527588 
	C329.179413,532.716431 330.948853,532.121521 334.102570,530.860291 
	C331.958710,534.952637 330.571381,537.600830 329.211060,540.197510 
	C327.784882,540.050232 325.786224,539.843811 323.464050,539.761475 
z"/>
<path fill="#7B8088" opacity="1.000000" stroke="none" 
	d="
M372.657471,568.196655 
	C374.409393,567.496948 376.584595,566.843079 378.822754,565.838257 
	C383.273132,567.598206 387.660522,569.709045 392.410156,571.827637 
	C392.794373,572.616638 392.816345,573.397949 392.854645,574.570435 
	C390.901337,574.509460 388.010925,574.721008 387.123108,573.489197 
	C383.480042,568.434631 378.678925,567.516602 372.657471,568.196655 
z"/>
<path fill="#7B8088" opacity="1.000000" stroke="none" 
	d="
M313.686584,521.751587 
	C314.432343,526.021790 310.595581,526.053040 309.035339,525.887085 
	C307.392822,525.712463 306.009277,523.102112 303.814240,520.834595 
	C308.084564,521.100403 310.806915,521.269836 313.686584,521.751587 
z"/>
<path fill="#7B8088" opacity="1.000000" stroke="none" 
	d="
M394.481750,568.239929 
	C394.303894,569.240906 393.917236,570.451965 393.184631,571.725708 
	C393.316803,570.675598 393.794891,569.562805 394.481750,568.239929 
z"/>
<path fill="#0F9FBB" opacity="1.000000" stroke="none" 
	d="
M382.391479,546.856628 
	C381.974274,546.557739 381.511139,545.983154 381.064026,545.107544 
	C381.501892,545.397949 381.923737,545.989441 382.391479,546.856628 
z"/>
<path fill="#7B8088" opacity="1.000000" stroke="none" 
	d="
M393.850220,564.454224 
	C394.191772,564.633179 394.512451,565.082703 394.714233,565.814575 
	C394.339996,565.639465 394.084686,565.182068 393.850220,564.454224 
z"/>
<path fill="#7B8088" opacity="1.000000" stroke="none" 
	d="
M392.931152,561.344116 
	C392.969330,561.140869 393.391907,561.315125 393.391907,561.315125 
	C393.391907,561.315125 393.412598,561.769043 393.262207,561.833740 
	C393.111847,561.898438 392.892975,561.547424 392.931152,561.344116 
z"/>
<path fill="#F95D53" opacity="1.000000" stroke="none" 
	d="
M582.785828,343.693726 
	C577.693665,347.105164 572.995544,346.124969 567.924255,342.897003 
	C565.751770,341.514252 562.204468,342.291321 559.281860,342.087036 
	C559.123779,342.716187 558.965759,343.345306 558.807678,343.974457 
	C560.712891,344.985657 562.521973,346.299194 564.544312,346.941895 
	C568.184998,348.098999 571.325623,349.636688 574.641846,351.838196 
	C581.182068,356.179871 582.264099,362.201782 582.931641,368.735870 
	C583.502319,374.320923 583.499756,379.965820 583.698792,385.586090 
	C583.726440,386.364685 583.715881,387.628510 583.283020,387.866028 
	C577.819214,390.864136 579.990356,394.372101 582.339966,398.070526 
	C582.743713,398.706024 582.335999,399.857025 581.995605,400.975281 
	C569.003357,393.152863 555.730652,386.415344 541.051758,382.808563 
	C500.752502,372.906677 463.818451,379.936798 429.999573,404.222778 
	C414.476227,415.370361 403.040283,429.568970 394.221497,446.873810 
	C388.431305,448.633606 390.267944,452.762482 390.196564,456.178650 
	C390.196564,456.178650 390.244415,456.225800 390.257507,456.257568 
	C383.006348,455.502228 382.154358,452.720551 385.980927,446.171906 
	C387.720642,443.194641 387.617401,439.134125 388.315704,435.558228 
	C388.556122,434.327118 388.310242,432.824066 388.936493,431.873474 
	C393.726959,424.602356 393.441010,422.767090 386.131409,416.763367 
	C393.491241,408.614685 400.501526,400.492340 408.663116,393.767212 
	C415.320374,388.281616 423.353882,384.466217 431.105530,379.922150 
	C431.959900,379.611298 432.485901,379.288574 433.159088,378.891846 
	C433.306274,378.817810 433.635040,378.796295 433.635040,378.796295 
	C437.418396,379.183624 441.218506,379.987915 444.980164,379.836548 
	C448.472382,379.696014 451.921997,378.527924 455.393250,377.826385 
	C458.666046,377.164948 462.165436,377.036987 465.161255,375.740875 
	C468.924957,374.112488 472.218018,371.428009 475.827118,369.400330 
	C478.578461,367.854492 481.684204,365.209473 484.317596,365.542480 
	C489.867950,366.244293 490.074554,364.014648 489.011047,359.974060 
	C488.523468,358.121582 487.938843,356.294678 487.398224,354.456177 
	C486.932587,354.856659 486.466949,355.257172 486.001343,355.657684 
	C484.228638,354.579376 482.481506,353.456207 480.679047,352.430176 
	C470.853455,346.836945 460.541412,343.492218 449.027771,345.458679 
	C446.646515,345.865387 444.198517,345.881134 441.781281,346.077057 
	C441.606232,345.464966 441.431183,344.852875 441.256134,344.240814 
	C444.770721,343.160645 448.228149,341.462128 451.811951,341.131073 
	C458.935211,340.472992 465.810486,339.654419 472.120911,335.764252 
	C474.224701,334.467346 477.195007,334.156891 479.777985,334.125763 
	C494.508179,333.948059 509.241058,333.992035 523.973022,333.958008 
	C527.135376,333.950714 530.297729,333.932465 533.961670,333.847534 
	C550.506165,336.977570 566.549133,340.179321 582.785828,343.693726 
z"/>
<path fill="#FECEC5" opacity="1.000000" stroke="none" 
	d="
M430.777191,379.910278 
	C423.353882,384.466217 415.320374,388.281616 408.663116,393.767212 
	C400.501526,400.492340 393.491241,408.614685 385.946167,416.466583 
	C383.414764,420.304138 380.886536,423.784607 378.434326,427.317841 
	C375.191223,431.990723 371.452515,433.151733 367.522064,430.623688 
	C363.763275,428.206055 362.706390,423.674957 366.005890,419.288361 
	C372.580383,410.547638 379.429535,401.973816 386.693726,393.800751 
	C397.823547,381.278229 411.728241,372.398712 426.708344,365.162079 
	C432.537628,362.346039 437.740936,364.432617 438.336273,370.459198 
	C438.579407,372.920074 435.640564,375.695282 433.892181,378.561890 
	C433.635040,378.796295 433.306274,378.817810 432.842102,378.902435 
	C431.844360,379.294800 431.310760,379.602539 430.777191,379.910278 
z"/>
<path fill="#0F9FBB" opacity="1.000000" stroke="none" 
	d="
M698.550476,488.265961 
	C707.292480,492.367401 715.658386,496.440216 724.278198,500.781128 
	C721.613892,505.056976 724.676758,507.192688 728.797974,510.364227 
	C725.789062,510.364227 724.311829,510.179169 722.906616,510.418060 
	C721.589600,510.641907 719.573914,510.984924 719.207642,511.846222 
	C717.548035,515.748840 714.854431,516.345154 711.005127,514.701111 
	C709.926270,519.738098 708.164307,520.857666 705.322815,516.050537 
	C704.947327,515.415283 703.568848,515.299255 702.622498,515.087708 
	C698.144897,514.087036 693.565430,512.071594 689.194580,512.443542 
	C683.969971,512.888123 678.920349,515.389954 673.448486,517.097534 
	C670.090698,514.620850 668.267822,511.744080 669.850647,507.515656 
	C670.236267,506.485657 669.524109,505.044708 669.571167,503.399353 
	C675.860352,503.186493 671.174988,497.499207 673.719543,495.792175 
	C679.417297,496.388367 679.417297,496.388367 680.528198,493.518768 
	C678.757568,493.196503 677.005859,492.877655 675.254150,492.558807 
	C681.511414,492.898987 681.923767,486.865723 684.991821,483.315979 
	C689.419067,484.717621 693.796692,486.477509 698.550476,488.265961 
z"/>
<path fill="#0F9FBB" opacity="1.000000" stroke="none" 
	d="
M677.006042,569.106873 
	C679.169067,570.679443 681.332092,572.251953 684.484436,574.543762 
	C684.484436,571.301392 684.484436,569.888977 684.484436,567.515747 
	C685.909302,568.380005 687.831787,569.034851 687.808960,569.613037 
	C687.625977,574.256653 690.612854,573.595276 693.482422,573.345459 
	C694.637146,573.244934 695.927490,572.940552 696.934326,573.318970 
	C698.405334,573.871826 700.936951,575.288147 700.813660,575.756531 
	C700.293579,577.732117 699.066101,580.980530 697.899048,581.066406 
	C693.557800,581.385681 689.082214,580.952820 684.768005,580.181641 
	C681.953125,579.678406 679.632141,578.978333 677.964661,582.100586 
	C677.556152,582.865540 676.162537,583.943054 675.775391,583.752441 
	C671.380066,581.589233 667.092346,579.207397 662.905884,576.128418 
	C667.041077,573.209351 671.028748,571.012268 675.073914,568.926514 
	C675.558167,568.676819 676.354431,569.032043 677.006042,569.106873 
z"/>
<path fill="#0F9FBB" opacity="1.000000" stroke="none" 
	d="
M653.305542,574.137146 
	C650.819946,574.900513 648.334351,575.663818 645.848755,576.427185 
	C645.562927,576.024597 645.277039,575.621948 644.991150,575.219360 
	C647.785889,572.528381 650.201660,569.151001 653.482178,567.340088 
	C656.739136,565.542236 660.866333,565.320740 665.056885,564.299438 
	C666.061218,565.089539 667.472839,566.200073 668.959167,567.979858 
	C667.281311,568.800842 665.528687,568.952576 663.433655,569.133972 
	C663.026123,572.860168 660.212524,573.679199 656.502319,573.356689 
	C655.467163,573.266663 654.372742,573.858276 653.305542,574.137146 
z"/>
<path fill="#0F9FBB" opacity="1.000000" stroke="none" 
	d="
M698.171021,559.184448 
	C704.174500,556.789917 706.256714,560.865051 709.186707,565.084045 
	C702.991699,565.084045 697.387512,565.084045 691.419739,565.084045 
	C690.427246,560.813416 692.756226,558.062378 698.171021,559.184448 
z"/>
<path fill="#7B8088" opacity="1.000000" stroke="none" 
	d="
M658.399902,546.849915 
	C659.513367,545.554871 660.994080,544.308594 662.539246,543.008179 
	C660.633850,541.767700 658.964172,540.680664 657.239136,539.264160 
	C658.597412,538.552551 660.372314,538.576355 661.350708,537.705444 
	C663.511169,535.782166 664.931213,535.960999 666.552856,538.250793 
	C667.527954,539.627625 668.876160,540.740295 670.056763,541.971619 
	C671.779114,540.169861 673.692627,538.507446 675.147644,536.510803 
	C675.940979,535.422180 675.956787,533.766968 676.662354,532.542053 
	C676.098694,536.027100 675.195923,539.337341 674.285889,542.674316 
	C674.506165,542.712524 675.140991,542.822571 675.775818,542.932617 
	C671.785522,543.626648 667.775146,544.224976 663.814331,545.058960 
	C662.079712,545.424133 660.446533,546.270691 658.399902,546.849915 
z"/>
<path fill="#7B8088" opacity="1.000000" stroke="none" 
	d="
M653.713318,574.196899 
	C654.372742,573.858276 655.467163,573.266663 656.502319,573.356689 
	C660.212524,573.679199 663.026123,572.860168 663.433655,569.133972 
	C665.528687,568.952576 667.281311,568.800842 669.109009,568.295593 
	C670.030457,566.662659 670.876831,565.383240 672.835449,562.422424 
	C674.261108,564.533508 675.567688,566.468262 676.940186,568.755005 
	C676.354431,569.032043 675.558167,568.676819 675.073914,568.926514 
	C671.028748,571.012268 667.041077,573.209351 662.875000,575.754700 
	C659.849670,575.509949 656.985352,574.883301 653.713318,574.196899 
z"/>
<path fill="#0F9FBB" opacity="1.000000" stroke="none" 
	d="
M676.160278,542.902710 
	C675.140991,542.822571 674.506165,542.712524 674.285889,542.674316 
	C675.195923,539.337341 676.098694,536.027100 676.938416,532.312622 
	C677.227844,531.251831 677.580322,530.595215 678.064514,529.693176 
	C681.867188,538.335999 681.546631,540.739258 676.160278,542.902710 
z"/>
<path fill="#0F9FBB" opacity="1.000000" stroke="none" 
	d="
M656.350708,531.901245 
	C658.253357,528.213562 660.504089,524.500366 662.995972,520.389343 
	C664.628479,522.129700 665.442932,522.997864 666.588257,523.918213 
	C663.512451,526.605469 660.105591,529.240662 656.350708,531.901245 
z"/>
<path fill="#7B8088" opacity="1.000000" stroke="none" 
	d="
M655.798462,548.255066 
	C656.059204,547.821594 656.593262,547.366089 657.419067,546.930298 
	C657.164429,547.377686 656.618103,547.805359 655.798462,548.255066 
z"/>
<path fill="#0F9FBB" opacity="1.000000" stroke="none" 
	d="
M655.218628,532.888428 
	C655.052429,532.665466 655.201172,532.402954 655.669678,532.108521 
	C655.828003,532.330933 655.676086,532.588379 655.218628,532.888428 
z"/>
<path fill="#7B8088" opacity="1.000000" stroke="none" 
	d="
M654.738403,549.161560 
	C654.378662,548.880127 654.444885,548.642151 654.981506,548.523804 
	C655.210571,548.817383 655.114685,549.004578 654.738403,549.161560 
z"/>
<path fill="#7B8088" opacity="1.000000" stroke="none" 
	d="
M653.500854,550.041382 
	C653.317444,549.709412 653.470764,549.514282 653.972839,549.514404 
	C654.108704,549.851929 653.947327,550.008118 653.500854,550.041382 
z"/>
<path fill="#ECF3FB" opacity="1.000000" stroke="none" 
	d="
M521.005493,615.022949 
	C520.273010,615.344543 519.547302,615.929626 518.807007,615.948853 
	C503.348572,616.350159 488.071777,615.877258 473.015778,611.263855 
	C453.303894,605.223938 436.353333,594.929749 422.521942,579.865845 
	C406.868805,562.817810 397.386261,542.564758 394.012634,519.603821 
	C390.584869,496.274200 393.926117,473.852997 404.666901,452.886047 
	C417.888641,427.075958 437.822937,408.302887 465.264435,398.084747 
	C481.277740,392.121979 497.922424,388.939972 514.958984,390.144714 
	C539.312988,391.866882 561.579956,399.783295 580.797180,415.306793 
	C596.510803,428.000092 608.261047,443.557983 615.062744,462.698425 
	C615.617554,464.259613 616.292480,465.778107 616.593018,467.633484 
	C610.659912,463.948639 605.318787,459.468719 599.363403,456.063141 
	C591.531799,451.584656 583.216736,447.951447 574.819397,443.787781 
	C550.441650,418.399658 520.920654,409.559601 487.121735,416.159515 
	C439.090698,425.538513 407.410858,476.039398 419.351318,523.405029 
	C423.878601,541.472534 432.876038,556.458496 446.465820,568.685547 
	C456.776764,577.962524 468.939209,583.833679 482.046570,588.457031 
	C483.642365,589.663208 485.094849,590.718262 486.712860,591.347839 
	C493.448059,593.968384 500.233185,596.460693 507.037598,599.349121 
	C510.625092,602.329407 514.174927,604.960571 517.724792,607.591675 
	C517.895569,607.310120 518.066406,607.028503 518.237183,606.746948 
	C519.159973,609.505615 520.082703,612.264282 521.005493,615.022949 
z"/>
<path fill="#CBD9F0" opacity="1.000000" stroke="none" 
	d="
M507.000000,599.000000 
	C500.233185,596.460693 493.448059,593.968384 486.712860,591.347839 
	C485.094849,590.718262 483.642365,589.663208 482.439880,588.421265 
	C509.634155,594.632080 535.101074,591.252686 558.258301,575.941528 
	C577.734192,563.064514 590.590149,545.134766 595.551025,521.585449 
	C596.338318,514.359131 597.496460,507.433228 597.369934,500.530853 
	C596.975220,478.992798 588.675293,460.397217 575.109619,443.954773 
	C583.216736,447.951447 591.531799,451.584656 599.363403,456.063141 
	C605.318787,459.468719 610.659912,463.948639 616.613037,468.006714 
	C621.204956,480.393372 622.201843,493.097290 622.188171,506.081421 
	C622.176819,516.830322 620.367615,527.081482 616.617737,537.612915 
	C615.605347,538.536926 614.745178,538.878174 614.335083,539.511047 
	C599.375793,562.593872 580.022583,580.743713 554.552612,591.637268 
	C539.431763,598.104553 523.914978,603.451904 507.000000,599.000000 
z"/>
<path fill="#E5EEFB" opacity="1.000000" stroke="none" 
	d="
M507.037598,599.349121 
	C523.914978,603.451904 539.431763,598.104553 554.552612,591.637268 
	C580.022583,580.743713 599.375793,562.593872 614.335083,539.511047 
	C614.745178,538.878174 615.605347,538.536926 616.598022,538.001221 
	C612.464966,551.814697 605.644958,564.260010 596.218994,575.537170 
	C585.573059,588.273987 572.987366,598.273865 558.128601,605.320007 
	C546.713379,610.733215 534.737000,614.636597 521.451660,615.016907 
	C520.082703,612.264282 519.159973,609.505615 518.237183,606.746948 
	C518.066406,607.028503 517.895569,607.310120 517.724792,607.591675 
	C514.174927,604.960571 510.625092,602.329407 507.037598,599.349121 
z"/>
<path fill="#F75F56" opacity="1.000000" stroke="none" 
	d="
M390.476715,455.968567 
	C390.267944,452.762482 388.431305,448.633606 393.983673,447.126404 
	C393.175781,450.011627 391.966339,452.885040 390.476715,455.968567 
z"/>
<path fill="#FBC232" opacity="1.000000" stroke="none" 
	d="
M674.995789,492.655426 
	C677.005859,492.877655 678.757568,493.196503 680.528198,493.518768 
	C679.417297,496.388367 679.417297,496.388367 673.719543,495.792175 
	C671.174988,497.499207 675.860352,503.186493 669.406677,503.057190 
	C666.440613,501.180939 663.893494,499.253510 661.026001,497.083649 
	C663.840332,495.822144 666.131409,494.795197 669.082642,493.573730 
	C670.709717,493.002625 671.676636,492.626099 672.643616,492.249542 
	C673.341553,492.417053 674.039490,492.584534 674.995789,492.655426 
z"/>
<path fill="#0F9FBB" opacity="1.000000" stroke="none" 
	d="
M672.221008,492.173645 
	C671.676636,492.626099 670.709717,493.002625 669.341797,493.363159 
	C669.893372,492.930664 670.845886,492.514221 672.221008,492.173645 
z"/>
<path fill="#059DCB" opacity="1.000000" stroke="none" 
	d="
M391.069489,552.579346 
	C390.894043,553.591125 390.678467,554.605469 390.462891,555.619873 
	C390.111023,555.499390 389.759155,555.378906 389.407257,555.258423 
	C389.802338,554.513977 390.197388,553.769531 390.826599,552.765686 
	C391.060699,552.506287 391.029358,552.581970 391.069489,552.579346 
z"/>
<path fill="#F75F56" opacity="1.000000" stroke="none" 
	d="
M431.105530,379.922150 
	C431.310760,379.602539 431.844360,379.294800 432.694916,378.976440 
	C432.485901,379.288574 431.959900,379.611298 431.105530,379.922150 
z"/>
<path fill="#2D3A59" opacity="1.000000" stroke="none" 
	d="
M574.819397,443.787781 
	C588.675293,460.397217 596.975220,478.992798 597.369934,500.530853 
	C597.496460,507.433228 596.338318,514.359131 595.155090,521.626221 
	C592.981689,523.681091 590.892761,525.132996 589.945435,527.127136 
	C583.232422,541.259155 576.030334,554.806885 563.581177,565.157227 
	C541.520142,583.498779 516.075073,588.951050 488.890503,583.504333 
	C459.767242,577.669128 438.639526,560.550903 427.501099,532.244690 
	C425.953674,528.312256 424.545624,523.886475 419.332703,523.037292 
	C407.410858,476.039398 439.090698,425.538513 487.121735,416.159515 
	C520.920654,409.559601 550.441650,418.399658 574.819397,443.787781 
M461.850006,487.329437 
	C461.516541,489.783661 461.247070,492.248566 460.839691,494.690460 
	C456.696655,519.523804 471.866913,542.650635 496.218201,548.590942 
	C516.314087,553.493286 537.397400,545.690674 548.431091,529.267883 
	C559.559265,512.704529 558.970032,492.357269 546.880371,475.718506 
	C535.505981,460.064117 514.678467,452.485168 496.107727,457.495056 
	C490.875946,458.906464 485.833801,461.020691 480.848022,462.119568 
	C489.244934,448.242126 497.641846,434.364655 506.213837,420.197906 
	C466.742310,417.783051 424.625244,452.499115 423.314575,497.344543 
	C436.135895,493.704498 448.878479,490.086823 461.850006,487.329437 
z"/>
<path fill="#17203E" opacity="1.000000" stroke="none" 
	d="
M419.351318,523.405029 
	C424.545624,523.886475 425.953674,528.312256 427.501099,532.244690 
	C438.639526,560.550903 459.767242,577.669128 488.890503,583.504333 
	C516.075073,588.951050 541.520142,583.498779 563.581177,565.157227 
	C576.030334,554.806885 583.232422,541.259155 589.945435,527.127136 
	C590.892761,525.132996 592.981689,523.681091 594.938110,521.937500 
	C590.590149,545.134766 577.734192,563.064514 558.258301,575.941528 
	C535.101074,591.252686 509.634155,594.632080 482.372681,588.074524 
	C468.939209,583.833679 456.776764,577.962524 446.465820,568.685547 
	C432.876038,556.458496 423.878601,541.472534 419.351318,523.405029 
z"/>
<path fill="#060922" opacity="1.000000" stroke="none" 
	d="
M480.704712,462.812592 
	C485.833801,461.020691 490.875946,458.906464 496.107727,457.495056 
	C514.678467,452.485168 535.505981,460.064117 546.880371,475.718506 
	C558.970032,492.357269 559.559265,512.704529 548.431091,529.267883 
	C537.397400,545.690674 516.314087,553.493286 496.218201,548.590942 
	C471.866913,542.650635 456.696655,519.523804 460.839691,494.690460 
	C461.247070,492.248566 461.516541,489.783661 462.054199,486.734558 
	C464.421509,484.617767 467.185638,483.524628 468.634796,481.493378 
	C472.935913,475.464661 476.719086,469.066406 480.704712,462.812592 
M513.542908,531.180542 
	C529.258179,528.270142 539.473755,514.128601 536.909790,498.833618 
	C534.298218,483.254517 518.313843,472.296875 502.400757,475.177002 
	C487.822144,477.815552 476.871368,492.971405 479.370483,507.050842 
	C482.226501,523.141052 497.040527,533.930725 513.542908,531.180542 
z"/>
<path fill="#E5EEFB" opacity="1.000000" stroke="none" 
	d="
M480.776367,462.466095 
	C476.719086,469.066406 472.935913,475.464661 468.634796,481.493378 
	C467.185638,483.524628 464.421509,484.617767 461.939728,486.304382 
	C448.878479,490.086823 436.135895,493.704498 423.314575,497.344543 
	C424.625244,452.499115 466.742310,417.783051 506.213837,420.197906 
	C497.641846,434.364655 489.244934,448.242126 480.776367,462.466095 
z"/>
<path fill="#7B8088" opacity="1.000000" stroke="none" 
	d="
M513.125610,531.256348 
	C497.040527,533.930725 482.226501,523.141052 479.370483,507.050842 
	C476.871368,492.971405 487.822144,477.815552 502.400757,475.177002 
	C518.313843,472.296875 534.298218,483.254517 536.909790,498.833618 
	C539.473755,514.128601 529.258179,528.270142 513.125610,531.256348 
z"/>
</svg>